<?xml version="1.0" standalone="no"?>
<!DOCTYPE svg PUBLIC "-//W3C//DTD SVG 20010904//EN"
 "http://www.w3.org/TR/2001/REC-SVG-20010904/DTD/svg10.dtd">
<svg version="1.0" xmlns="http://www.w3.org/2000/svg"
 width="146.000000pt" height="117.000000pt" viewBox="0 0 146.000000 117.000000"
 preserveAspectRatio="xMidYMid meet">

<g transform="translate(0.000000,117.000000) scale(0.100000,-0.100000)"
fill="#000000" stroke="none">
<path d="M417 996 c-40 -15 -61 -35 -78 -75 -16 -40 6 -81 76 -144 85 -76 106
-118 107 -211 0 -39 -5 -98 -12 -130 -30 -146 35 -256 151 -256 84 0 129 59
129 169 0 81 -21 128 -80 184 -66 62 -80 93 -92 201 -5 50 -12 109 -14 131
-12 104 -97 164 -187 131z"/>
<path d="M750 921 c-52 -28 -84 -91 -83 -166 1 -82 21 -123 87 -181 101 -87
125 -160 87 -268 -12 -33 -21 -75 -21 -95 0 -76 73 -146 143 -137 50 6 86 30
103 71 25 61 18 98 -41 211 -72 137 -82 183 -61 276 23 100 21 165 -6 218 -43
84 -128 113 -208 71z"/>
<path d="M299 711 c-79 -84 -90 -222 -23 -289 32 -32 38 -34 80 -29 114 12
157 144 89 276 -45 90 -88 102 -146 42z"/>
<path d="M1053 725 c-68 -48 -43 -206 49 -311 40 -46 73 -59 109 -43 47 19 64
55 62 132 -2 93 -26 158 -74 201 -32 30 -47 36 -82 36 -23 0 -52 -7 -64 -15z"/>
</g>
</svg>
